<svg width="1440" height="1000" viewBox="0 0 1440 1000" fill="none" xmlns="http://www.w3.org/2000/svg">
<g clip-path="url(#clip0_126_2)">
<rect width="1440" height="1000" rx="40" fill="#F9FFB5"/>
<g filter="url(#filter0_d_126_2)">
<rect width="1440" height="170" fill="#FBFFD0"/>
<path d="M106.364 109.591C104.136 109.591 102.159 109.22 100.432 108.477C98.7197 107.72 97.3636 106.583 96.3636 105.068C95.3788 103.538 94.8864 101.621 94.8864 99.3182C94.8864 97.3788 95.2273 95.7424 95.9091 94.4091C96.5909 93.0758 97.5303 91.9924 98.7273 91.1591C99.9242 90.3258 101.303 89.697 102.864 89.2727C104.424 88.8333 106.091 88.5379 107.864 88.3864C109.848 88.2045 111.447 88.0152 112.659 87.8182C113.871 87.6061 114.75 87.3106 115.295 86.9318C115.856 86.5379 116.136 85.9848 116.136 85.2727V85.1591C116.136 83.9924 115.735 83.0909 114.932 82.4545C114.129 81.8182 113.045 81.5 111.682 81.5C110.212 81.5 109.03 81.8182 108.136 82.4545C107.242 83.0909 106.674 83.9697 106.432 85.0909L96.1818 84.7273C96.4848 82.6061 97.2652 80.7121 98.5227 79.0455C99.7955 77.3636 101.538 76.0455 103.75 75.0909C105.977 74.1212 108.652 73.6364 111.773 73.6364C114 73.6364 116.053 73.9015 117.932 74.4318C119.811 74.947 121.447 75.7045 122.841 76.7045C124.235 77.6894 125.311 78.9015 126.068 80.3409C126.841 81.7803 127.227 83.4242 127.227 85.2727V109H116.773V104.136H116.5C115.879 105.318 115.083 106.318 114.114 107.136C113.159 107.955 112.03 108.568 110.727 108.977C109.439 109.386 107.985 109.591 106.364 109.591ZM109.795 102.318C110.992 102.318 112.068 102.076 113.023 101.591C113.992 101.106 114.765 100.439 115.341 99.5909C115.917 98.7273 116.205 97.7273 116.205 96.5909V93.2727C115.886 93.4394 115.5 93.5909 115.045 93.7273C114.606 93.8636 114.121 93.9924 113.591 94.1136C113.061 94.2348 112.515 94.3409 111.955 94.4318C111.394 94.5227 110.856 94.6061 110.341 94.6818C109.295 94.8485 108.402 95.1061 107.659 95.4545C106.932 95.803 106.371 96.2576 105.977 96.8182C105.598 97.3636 105.409 98.0152 105.409 98.7727C105.409 99.9242 105.818 100.803 106.636 101.409C107.47 102.015 108.523 102.318 109.795 102.318ZM134.023 109V62.4545H145.136V80.0682H145.364C145.818 79.0076 146.462 77.9848 147.295 77C148.144 76.0152 149.22 75.2121 150.523 74.5909C151.841 73.9545 153.417 73.6364 155.25 73.6364C157.674 73.6364 159.939 74.2727 162.045 75.5455C164.167 76.8182 165.879 78.7803 167.182 81.4318C168.485 84.0833 169.136 87.4621 169.136 91.5682C169.136 95.5227 168.508 98.8333 167.25 101.5C166.008 104.167 164.326 106.167 162.205 107.5C160.098 108.833 157.758 109.5 155.182 109.5C153.424 109.5 151.902 109.212 150.614 108.636C149.326 108.061 148.242 107.303 147.364 106.364C146.5 105.424 145.833 104.417 145.364 103.341H145.023V109H134.023ZM144.909 91.5455C144.909 93.4242 145.159 95.0606 145.659 96.4545C146.174 97.8485 146.909 98.9318 147.864 99.7045C148.833 100.462 149.992 100.841 151.341 100.841C152.705 100.841 153.864 100.462 154.818 99.7045C155.773 98.9318 156.492 97.8485 156.977 96.4545C157.477 95.0606 157.727 93.4242 157.727 91.5455C157.727 89.6667 157.477 88.0379 156.977 86.6591C156.492 85.2803 155.773 84.2121 154.818 83.4545C153.879 82.697 152.72 82.3182 151.341 82.3182C149.977 82.3182 148.818 82.6894 147.864 83.4318C146.909 84.1742 146.174 85.2348 145.659 86.6136C145.159 87.9924 144.909 89.6364 144.909 91.5455ZM191.256 109.659C187.589 109.659 184.438 108.909 181.801 107.409C179.18 105.894 177.157 103.788 175.733 101.091C174.324 98.3788 173.619 95.2348 173.619 91.6591C173.619 88.0682 174.324 84.9242 175.733 82.2273C177.157 79.5152 179.18 77.4091 181.801 75.9091C184.438 74.3939 187.589 73.6364 191.256 73.6364C194.922 73.6364 198.066 74.3939 200.688 75.9091C203.324 77.4091 205.347 79.5152 206.756 82.2273C208.18 84.9242 208.892 88.0682 208.892 91.6591C208.892 95.2348 208.18 98.3788 206.756 101.091C205.347 103.788 203.324 105.894 200.688 107.409C198.066 108.909 194.922 109.659 191.256 109.659ZM191.324 101.273C192.657 101.273 193.786 100.864 194.71 100.045C195.634 99.2273 196.339 98.0909 196.824 96.6364C197.324 95.1818 197.574 93.5 197.574 91.5909C197.574 89.6515 197.324 87.9545 196.824 86.5C196.339 85.0455 195.634 83.9091 194.71 83.0909C193.786 82.2727 192.657 81.8636 191.324 81.8636C189.945 81.8636 188.778 82.2727 187.824 83.0909C186.884 83.9091 186.165 85.0455 185.665 86.5C185.18 87.9545 184.938 89.6515 184.938 91.5909C184.938 93.5 185.18 95.1818 185.665 96.6364C186.165 98.0909 186.884 99.2273 187.824 100.045C188.778 100.864 189.945 101.273 191.324 101.273ZM237.108 93.9318V74.0909H248.199V109H237.608V102.5H237.244C236.472 104.636 235.153 106.333 233.29 107.591C231.441 108.833 229.206 109.455 226.585 109.455C224.206 109.455 222.116 108.909 220.312 107.818C218.509 106.727 217.108 105.205 216.108 103.25C215.108 101.28 214.6 98.9773 214.585 96.3409V74.0909H225.699V94.1591C225.714 96.053 226.214 97.5455 227.199 98.6364C228.184 99.7273 229.525 100.273 231.222 100.273C232.328 100.273 233.32 100.03 234.199 99.5455C235.093 99.0455 235.797 98.3258 236.312 97.3864C236.843 96.4318 237.108 95.2803 237.108 93.9318ZM274.977 74.0909V82.2727H252.955V74.0909H274.977ZM257.568 65.7273H268.682V98.0227C268.682 98.7045 268.788 99.2576 269 99.6818C269.227 100.091 269.553 100.386 269.977 100.568C270.402 100.735 270.909 100.818 271.5 100.818C271.924 100.818 272.371 100.78 272.841 100.705C273.326 100.614 273.689 100.538 273.932 100.477L275.614 108.5C275.083 108.652 274.333 108.841 273.364 109.068C272.409 109.295 271.265 109.439 269.932 109.5C267.326 109.621 265.091 109.318 263.227 108.591C261.379 107.848 259.962 106.697 258.977 105.136C258.008 103.576 257.538 101.614 257.568 99.25V65.7273ZM349.398 122.091V74.0909H360.398V80.0682H360.739C361.193 79.0076 361.837 77.9848 362.67 77C363.519 76.0152 364.595 75.2121 365.898 74.5909C367.216 73.9545 368.792 73.6364 370.625 73.6364C373.049 73.6364 375.314 74.2727 377.42 75.5455C379.542 76.8182 381.254 78.7803 382.557 81.4318C383.86 84.0833 384.511 87.4621 384.511 91.5682C384.511 95.5227 383.883 98.8333 382.625 101.5C381.383 104.167 379.701 106.167 377.58 107.5C375.473 108.833 373.133 109.5 370.557 109.5C368.799 109.5 367.277 109.212 365.989 108.636C364.701 108.061 363.617 107.303 362.739 106.364C361.875 105.424 361.208 104.417 360.739 103.341H360.511V122.091H349.398ZM360.284 91.5455C360.284 93.4242 360.534 95.0606 361.034 96.4545C361.549 97.8485 362.284 98.9318 363.239 99.7045C364.208 100.462 365.367 100.841 366.716 100.841C368.08 100.841 369.239 100.462 370.193 99.7045C371.148 98.9318 371.867 97.8485 372.352 96.4545C372.852 95.0606 373.102 93.4242 373.102 91.5455C373.102 89.6667 372.852 88.0379 372.352 86.6591C371.867 85.2803 371.148 84.2121 370.193 83.4545C369.254 82.697 368.095 82.3182 366.716 82.3182C365.352 82.3182 364.193 82.6894 363.239 83.4318C362.284 84.1742 361.549 85.2348 361.034 86.6136C360.534 87.9924 360.284 89.6364 360.284 91.5455ZM390.335 109V74.0909H401.131V80.4545H401.494C402.131 78.1515 403.169 76.4394 404.608 75.3182C406.047 74.1818 407.722 73.6136 409.631 73.6136C410.146 73.6136 410.676 73.6515 411.222 73.7273C411.767 73.7879 412.275 73.8864 412.744 74.0227V83.6818C412.214 83.5 411.517 83.3561 410.653 83.25C409.805 83.1439 409.047 83.0909 408.381 83.0909C407.063 83.0909 405.873 83.3864 404.812 83.9773C403.767 84.553 402.941 85.3636 402.335 86.4091C401.744 87.4394 401.449 88.6515 401.449 90.0455V109H390.335ZM431.756 109.659C428.089 109.659 424.938 108.909 422.301 107.409C419.68 105.894 417.657 103.788 416.233 101.091C414.824 98.3788 414.119 95.2348 414.119 91.6591C414.119 88.0682 414.824 84.9242 416.233 82.2273C417.657 79.5152 419.68 77.4091 422.301 75.9091C424.938 74.3939 428.089 73.6364 431.756 73.6364C435.422 73.6364 438.566 74.3939 441.188 75.9091C443.824 77.4091 445.847 79.5152 447.256 82.2273C448.68 84.9242 449.392 88.0682 449.392 91.6591C449.392 95.2348 448.68 98.3788 447.256 101.091C445.847 103.788 443.824 105.894 441.188 107.409C438.566 108.909 435.422 109.659 431.756 109.659ZM431.824 101.273C433.157 101.273 434.286 100.864 435.21 100.045C436.134 99.2273 436.839 98.0909 437.324 96.6364C437.824 95.1818 438.074 93.5 438.074 91.5909C438.074 89.6515 437.824 87.9545 437.324 86.5C436.839 85.0455 436.134 83.9091 435.21 83.0909C434.286 82.2727 433.157 81.8636 431.824 81.8636C430.445 81.8636 429.278 82.2727 428.324 83.0909C427.384 83.9091 426.665 85.0455 426.165 86.5C425.68 87.9545 425.438 89.6515 425.438 91.5909C425.438 93.5 425.68 95.1818 426.165 96.6364C426.665 98.0909 427.384 99.2273 428.324 100.045C429.278 100.864 430.445 101.273 431.824 101.273ZM455.085 74.0909H466.199V110.455C466.199 113.333 465.608 115.621 464.426 117.318C463.259 119.015 461.608 120.235 459.472 120.977C457.335 121.72 454.813 122.091 451.903 122.091C451.509 122.091 451.138 122.083 450.79 122.068C450.441 122.053 450.062 122.038 449.653 122.023V113.591C449.926 113.621 450.169 113.644 450.381 113.659C450.593 113.674 450.805 113.682 451.017 113.682C452.547 113.682 453.608 113.394 454.199 112.818C454.79 112.258 455.085 111.394 455.085 110.227V74.0909ZM460.631 70.0227C459.07 70.0227 457.729 69.5076 456.608 68.4773C455.487 67.4318 454.926 66.1742 454.926 64.7045C454.926 63.25 455.487 62.0076 456.608 60.9773C457.729 59.9318 459.07 59.4091 460.631 59.4091C462.206 59.4091 463.547 59.9318 464.653 60.9773C465.775 62.0076 466.335 63.25 466.335 64.7045C466.335 66.1742 465.775 67.4318 464.653 68.4773C463.547 69.5076 462.206 70.0227 460.631 70.0227ZM489.591 109.659C485.939 109.659 482.788 108.939 480.136 107.5C477.5 106.045 475.47 103.977 474.045 101.295C472.636 98.5985 471.932 95.3939 471.932 91.6818C471.932 88.0758 472.644 84.9242 474.068 82.2273C475.492 79.5152 477.5 77.4091 480.091 75.9091C482.682 74.3939 485.735 73.6364 489.25 73.6364C491.735 73.6364 494.008 74.0227 496.068 74.7955C498.129 75.5682 499.909 76.7121 501.409 78.2273C502.909 79.7424 504.076 81.6136 504.909 83.8409C505.742 86.053 506.159 88.5909 506.159 91.4545V94.2273H475.818V87.7727H495.818C495.803 86.5909 495.523 85.5379 494.977 84.6136C494.432 83.6894 493.682 82.9697 492.727 82.4545C491.788 81.9242 490.705 81.6591 489.477 81.6591C488.235 81.6591 487.121 81.9394 486.136 82.5C485.152 83.0455 484.371 83.7955 483.795 84.75C483.22 85.6894 482.917 86.7576 482.886 87.9545V94.5227C482.886 95.947 483.167 97.197 483.727 98.2727C484.288 99.3333 485.083 100.159 486.114 100.75C487.144 101.341 488.371 101.636 489.795 101.636C490.78 101.636 491.674 101.5 492.477 101.227C493.28 100.955 493.97 100.553 494.545 100.023C495.121 99.4924 495.553 98.8409 495.841 98.0682L506.045 98.3636C505.621 100.652 504.689 102.644 503.25 104.341C501.826 106.023 499.955 107.333 497.636 108.273C495.318 109.197 492.636 109.659 489.591 109.659ZM528.131 109.659C524.449 109.659 521.29 108.902 518.653 107.386C516.032 105.871 514.017 103.765 512.608 101.068C511.199 98.3561 510.494 95.2197 510.494 91.6591C510.494 88.0833 511.199 84.947 512.608 82.25C514.032 79.5379 516.055 77.4242 518.676 75.9091C521.313 74.3939 524.456 73.6364 528.108 73.6364C531.335 73.6364 534.146 74.2197 536.54 75.3864C538.949 76.553 540.828 78.2045 542.176 80.3409C543.54 82.4621 544.259 84.9545 544.335 87.8182H533.949C533.737 86.0303 533.131 84.6288 532.131 83.6136C531.146 82.5985 529.858 82.0909 528.267 82.0909C526.979 82.0909 525.85 82.4545 524.881 83.1818C523.911 83.8939 523.153 84.9545 522.608 86.3636C522.078 87.7576 521.812 89.4848 521.812 91.5455C521.812 93.6061 522.078 95.3485 522.608 96.7727C523.153 98.1818 523.911 99.25 524.881 99.9773C525.85 100.689 526.979 101.045 528.267 101.045C529.297 101.045 530.206 100.826 530.994 100.386C531.797 99.947 532.456 99.303 532.972 98.4545C533.487 97.5909 533.812 96.5455 533.949 95.3182H544.335C544.229 98.197 543.509 100.712 542.176 102.864C540.858 105.015 539.002 106.689 536.608 107.886C534.229 109.068 531.403 109.659 528.131 109.659ZM569.727 74.0909V82.2727H547.705V74.0909H569.727ZM552.318 65.7273H563.432V98.0227C563.432 98.7045 563.538 99.2576 563.75 99.6818C563.977 100.091 564.303 100.386 564.727 100.568C565.152 100.735 565.659 100.818 566.25 100.818C566.674 100.818 567.121 100.78 567.591 100.705C568.076 100.614 568.439 100.538 568.682 100.477L570.364 108.5C569.833 108.652 569.083 108.841 568.114 109.068C567.159 109.295 566.015 109.439 564.682 109.5C562.076 109.621 559.841 109.318 557.977 108.591C556.129 107.848 554.712 106.697 553.727 105.136C552.758 103.576 552.288 101.614 552.318 99.25V65.7273ZM605.438 84.75L595.233 85.0227C595.127 84.2955 594.839 83.6515 594.369 83.0909C593.9 82.5152 593.286 82.0682 592.528 81.75C591.786 81.4167 590.922 81.25 589.938 81.25C588.65 81.25 587.551 81.5076 586.642 82.0227C585.748 82.5379 585.309 83.2348 585.324 84.1136C585.309 84.7955 585.581 85.3864 586.142 85.8864C586.718 86.3864 587.741 86.7879 589.21 87.0909L595.938 88.3636C599.422 89.0303 602.013 90.1364 603.71 91.6818C605.422 93.2273 606.286 95.2727 606.301 97.8182C606.286 100.212 605.574 102.295 604.165 104.068C602.771 105.841 600.862 107.22 598.438 108.205C596.013 109.174 593.241 109.659 590.119 109.659C585.134 109.659 581.203 108.636 578.324 106.591C575.46 104.53 573.824 101.773 573.415 98.3182L584.392 98.0455C584.634 99.3182 585.263 100.288 586.278 100.955C587.294 101.621 588.589 101.955 590.165 101.955C591.589 101.955 592.748 101.689 593.642 101.159C594.536 100.629 594.991 99.9242 595.006 99.0455C594.991 98.2576 594.642 97.6288 593.96 97.1591C593.278 96.6742 592.21 96.2955 590.756 96.0227L584.665 94.8636C581.165 94.2273 578.559 93.053 576.847 91.3409C575.134 89.6136 574.286 87.4167 574.301 84.75C574.286 82.4167 574.907 80.4242 576.165 78.7727C577.422 77.1061 579.21 75.8333 581.528 74.9545C583.847 74.0758 586.581 73.6364 589.733 73.6364C594.46 73.6364 598.188 74.6288 600.915 76.6136C603.642 78.5833 605.15 81.2955 605.438 84.75Z" fill="black"/>
<rect x="8" y="8" width="1424" height="154" stroke="black" stroke-width="16"/>
</g>
<path d="M141.273 531.182V571H119.045V477.909H140.545V514H141.318C142.894 509.697 145.47 506.333 149.045 503.909C152.652 501.485 157.061 500.273 162.273 500.273C167.182 500.273 171.455 501.364 175.091 503.545C178.727 505.697 181.545 508.742 183.545 512.682C185.576 516.621 186.576 521.227 186.545 526.5V571H164.318V530.864C164.348 526.985 163.379 523.955 161.409 521.773C159.439 519.591 156.667 518.5 153.091 518.5C150.758 518.5 148.697 519.015 146.909 520.045C145.152 521.045 143.773 522.485 142.773 524.364C141.803 526.242 141.303 528.515 141.273 531.182ZM233.057 572.318C225.754 572.318 219.451 570.879 214.148 568C208.875 565.091 204.814 560.955 201.966 555.591C199.148 550.197 197.739 543.788 197.739 536.364C197.739 529.152 199.163 522.848 202.011 517.455C204.86 512.03 208.875 507.818 214.057 504.818C219.239 501.788 225.345 500.273 232.375 500.273C237.345 500.273 241.89 501.045 246.011 502.591C250.133 504.136 253.693 506.424 256.693 509.455C259.693 512.485 262.027 516.227 263.693 520.682C265.36 525.106 266.193 530.182 266.193 535.909V541.455H205.511V528.545H245.511C245.481 526.182 244.92 524.076 243.83 522.227C242.739 520.379 241.239 518.939 239.33 517.909C237.451 516.848 235.284 516.318 232.83 516.318C230.345 516.318 228.117 516.879 226.148 518C224.178 519.091 222.617 520.591 221.466 522.5C220.314 524.379 219.708 526.515 219.648 528.909V542.045C219.648 544.894 220.208 547.394 221.33 549.545C222.451 551.667 224.042 553.318 226.102 554.5C228.163 555.682 230.617 556.273 233.466 556.273C235.436 556.273 237.223 556 238.83 555.455C240.436 554.909 241.814 554.106 242.966 553.045C244.117 551.985 244.981 550.682 245.557 549.136L265.966 549.727C265.117 554.303 263.254 558.288 260.375 561.682C257.527 565.045 253.784 567.667 249.148 569.545C244.511 571.394 239.148 572.318 233.057 572.318ZM299.773 477.909V571H277.545V477.909H299.773ZM336.148 477.909V571H313.92V477.909H336.148ZM382.886 572.318C375.553 572.318 369.25 570.818 363.977 567.818C358.735 564.788 354.689 560.576 351.841 555.182C349.023 549.758 347.614 543.47 347.614 536.318C347.614 529.136 349.023 522.848 351.841 517.455C354.689 512.03 358.735 507.818 363.977 504.818C369.25 501.788 375.553 500.273 382.886 500.273C390.22 500.273 396.508 501.788 401.75 504.818C407.023 507.818 411.068 512.03 413.886 517.455C416.735 522.848 418.159 529.136 418.159 536.318C418.159 543.47 416.735 549.758 413.886 555.182C411.068 560.576 407.023 564.788 401.75 567.818C396.508 570.818 390.22 572.318 382.886 572.318ZM383.023 555.545C385.689 555.545 387.947 554.727 389.795 553.091C391.644 551.455 393.053 549.182 394.023 546.273C395.023 543.364 395.523 540 395.523 536.182C395.523 532.303 395.023 528.909 394.023 526C393.053 523.091 391.644 520.818 389.795 519.182C387.947 517.545 385.689 516.727 383.023 516.727C380.265 516.727 377.932 517.545 376.023 519.182C374.144 520.818 372.705 523.091 371.705 526C370.735 528.909 370.25 532.303 370.25 536.182C370.25 540 370.735 543.364 371.705 546.273C372.705 549.182 374.144 551.455 376.023 553.091C377.932 554.727 380.265 555.545 383.023 555.545ZM455.682 477.909L453.591 542.5H434.909L432.818 477.909H455.682ZM444.227 572.318C440.985 572.318 438.197 571.167 435.864 568.864C433.561 566.561 432.409 563.773 432.409 560.5C432.409 557.288 433.561 554.545 435.864 552.273C438.197 549.97 440.985 548.818 444.227 548.818C447.348 548.818 450.091 549.97 452.455 552.273C454.848 554.545 456.045 557.288 456.045 560.5C456.045 562.682 455.485 564.667 454.364 566.455C453.273 568.242 451.833 569.667 450.045 570.727C448.288 571.788 446.348 572.318 444.227 572.318ZM134.159 617.182V687H117.284V617.182H134.159ZM158.628 617.182V624.955C158.628 627.114 158.196 629.295 157.332 631.5C156.491 633.682 155.389 635.727 154.026 637.636C152.662 639.545 151.219 641.159 149.696 642.477L142.605 638.591C143.651 636.864 144.582 634.92 145.401 632.761C146.219 630.58 146.628 627.989 146.628 624.989V617.182H158.628ZM165.94 687V634.636H181.793V644.25H182.372C183.463 641.068 185.304 638.557 187.895 636.716C190.486 634.875 193.577 633.955 197.168 633.955C200.804 633.955 203.918 634.886 206.509 636.75C209.099 638.614 210.747 641.114 211.452 644.25H211.997C212.974 641.136 214.884 638.648 217.724 636.784C220.565 634.898 223.918 633.955 227.781 633.955C232.736 633.955 236.759 635.545 239.849 638.727C242.94 641.886 244.486 646.227 244.486 651.75V687H227.815V655.568C227.815 652.955 227.145 650.966 225.804 649.602C224.463 648.216 222.724 647.523 220.588 647.523C218.293 647.523 216.486 648.273 215.168 649.773C213.872 651.25 213.224 653.239 213.224 655.739V687H197.202V655.398C197.202 652.966 196.543 651.045 195.224 649.636C193.906 648.227 192.168 647.523 190.009 647.523C188.554 647.523 187.27 647.875 186.156 648.58C185.043 649.261 184.168 650.239 183.531 651.511C182.918 652.784 182.611 654.284 182.611 656.011V687H165.94ZM303.804 617.182H320.44V665.455C320.418 669.977 319.338 673.932 317.202 677.318C315.065 680.682 312.111 683.295 308.338 685.159C304.588 687.023 300.247 687.955 295.315 687.955C290.952 687.955 286.986 687.193 283.418 685.67C279.872 684.148 277.043 681.784 274.929 678.58C272.838 675.375 271.804 671.273 271.827 666.273H288.634C288.702 668.068 289.043 669.602 289.656 670.875C290.293 672.125 291.168 673.068 292.281 673.705C293.395 674.341 294.724 674.659 296.27 674.659C297.884 674.659 299.247 674.318 300.361 673.636C301.474 672.932 302.315 671.898 302.884 670.534C303.474 669.17 303.781 667.477 303.804 665.455V617.182ZM345.795 687.886C342.455 687.886 339.489 687.33 336.898 686.216C334.33 685.08 332.295 683.375 330.795 681.102C329.318 678.807 328.58 675.932 328.58 672.477C328.58 669.568 329.091 667.114 330.114 665.114C331.136 663.114 332.545 661.489 334.341 660.239C336.136 658.989 338.205 658.045 340.545 657.409C342.886 656.75 345.386 656.307 348.045 656.08C351.023 655.807 353.42 655.523 355.239 655.227C357.057 654.909 358.375 654.466 359.193 653.898C360.034 653.307 360.455 652.477 360.455 651.409V651.239C360.455 649.489 359.852 648.136 358.648 647.182C357.443 646.227 355.818 645.75 353.773 645.75C351.568 645.75 349.795 646.227 348.455 647.182C347.114 648.136 346.261 649.455 345.898 651.136L330.523 650.591C330.977 647.409 332.148 644.568 334.034 642.068C335.943 639.545 338.557 637.568 341.875 636.136C345.216 634.682 349.227 633.955 353.909 633.955C357.25 633.955 360.33 634.352 363.148 635.148C365.966 635.92 368.42 637.057 370.511 638.557C372.602 640.034 374.216 641.852 375.352 644.011C376.511 646.17 377.091 648.636 377.091 651.409V687H361.409V679.705H361C360.068 681.477 358.875 682.977 357.42 684.205C355.989 685.432 354.295 686.352 352.341 686.966C350.409 687.58 348.227 687.886 345.795 687.886ZM350.943 676.977C352.739 676.977 354.352 676.614 355.784 675.886C357.239 675.159 358.398 674.159 359.261 672.886C360.125 671.591 360.557 670.091 360.557 668.386V663.409C360.08 663.659 359.5 663.886 358.818 664.091C358.159 664.295 357.432 664.489 356.636 664.67C355.841 664.852 355.023 665.011 354.182 665.148C353.341 665.284 352.534 665.409 351.761 665.523C350.193 665.773 348.852 666.159 347.739 666.682C346.648 667.205 345.807 667.886 345.216 668.727C344.648 669.545 344.364 670.523 344.364 671.659C344.364 673.386 344.977 674.705 346.205 675.614C347.455 676.523 349.034 676.977 350.943 676.977ZM387.284 687V634.636H403.136V644.25H403.716C404.807 641.068 406.648 638.557 409.239 636.716C411.83 634.875 414.92 633.955 418.511 633.955C422.148 633.955 425.261 634.886 427.852 636.75C430.443 638.614 432.091 641.114 432.795 644.25H433.341C434.318 641.136 436.227 638.648 439.068 636.784C441.909 634.898 445.261 633.955 449.125 633.955C454.08 633.955 458.102 635.545 461.193 638.727C464.284 641.886 465.83 646.227 465.83 651.75V687H449.159V655.568C449.159 652.955 448.489 650.966 447.148 649.602C445.807 648.216 444.068 647.523 441.932 647.523C439.636 647.523 437.83 648.273 436.511 649.773C435.216 651.25 434.568 653.239 434.568 655.739V687H418.545V655.398C418.545 652.966 417.886 651.045 416.568 649.636C415.25 648.227 413.511 647.523 411.352 647.523C409.898 647.523 408.614 647.875 407.5 648.58C406.386 649.261 405.511 650.239 404.875 651.511C404.261 652.784 403.955 654.284 403.955 656.011V687H387.284ZM500.636 687.989C495.159 687.989 490.432 686.909 486.455 684.75C482.5 682.568 479.455 679.466 477.318 675.443C475.205 671.398 474.148 666.591 474.148 661.023C474.148 655.614 475.216 650.886 477.352 646.841C479.489 642.773 482.5 639.614 486.386 637.364C490.273 635.091 494.852 633.955 500.125 633.955C503.852 633.955 507.261 634.534 510.352 635.693C513.443 636.852 516.114 638.568 518.364 640.841C520.614 643.114 522.364 645.92 523.614 649.261C524.864 652.58 525.489 656.386 525.489 660.682V664.841H479.977V655.159H509.977C509.955 653.386 509.534 651.807 508.716 650.42C507.898 649.034 506.773 647.955 505.341 647.182C503.932 646.386 502.307 645.989 500.466 645.989C498.602 645.989 496.932 646.409 495.455 647.25C493.977 648.068 492.807 649.193 491.943 650.625C491.08 652.034 490.625 653.636 490.58 655.432V665.284C490.58 667.42 491 669.295 491.841 670.909C492.682 672.5 493.875 673.739 495.42 674.625C496.966 675.511 498.807 675.955 500.943 675.955C502.42 675.955 503.761 675.75 504.966 675.341C506.17 674.932 507.205 674.33 508.068 673.534C508.932 672.739 509.58 671.761 510.011 670.602L525.318 671.045C524.682 674.477 523.284 677.466 521.125 680.011C518.989 682.534 516.182 684.5 512.705 685.909C509.227 687.295 505.205 687.989 500.636 687.989ZM579.719 650.625L564.412 651.034C564.253 649.943 563.821 648.977 563.116 648.136C562.412 647.273 561.491 646.602 560.355 646.125C559.241 645.625 557.946 645.375 556.469 645.375C554.537 645.375 552.889 645.761 551.526 646.534C550.185 647.307 549.526 648.352 549.548 649.67C549.526 650.693 549.935 651.58 550.776 652.33C551.639 653.08 553.173 653.682 555.378 654.136L565.469 656.045C570.696 657.045 574.582 658.705 577.128 661.023C579.696 663.341 580.991 666.409 581.014 670.227C580.991 673.818 579.923 676.943 577.81 679.602C575.719 682.261 572.855 684.33 569.219 685.807C565.582 687.261 561.423 687.989 556.741 687.989C549.264 687.989 543.366 686.455 539.048 683.386C534.753 680.295 532.298 676.159 531.685 670.977L548.151 670.568C548.514 672.477 549.457 673.932 550.98 674.932C552.503 675.932 554.446 676.432 556.81 676.432C558.946 676.432 560.685 676.034 562.026 675.239C563.366 674.443 564.048 673.386 564.071 672.068C564.048 670.886 563.526 669.943 562.503 669.239C561.48 668.511 559.878 667.943 557.696 667.534L548.56 665.795C543.31 664.841 539.401 663.08 536.832 660.511C534.264 657.92 532.991 654.625 533.014 650.625C532.991 647.125 533.923 644.136 535.81 641.659C537.696 639.159 540.378 637.25 543.855 635.932C547.332 634.614 551.435 633.955 556.162 633.955C563.253 633.955 568.844 635.443 572.935 638.42C577.026 641.375 579.287 645.443 579.719 650.625ZM122.023 745.443C120.352 745.443 118.869 745.165 117.574 744.608C116.29 744.04 115.273 743.187 114.523 742.051C113.784 740.903 113.415 739.466 113.415 737.739C113.415 736.284 113.67 735.057 114.182 734.057C114.693 733.057 115.398 732.244 116.295 731.619C117.193 730.994 118.227 730.523 119.398 730.205C120.568 729.875 121.818 729.653 123.148 729.54C124.636 729.403 125.835 729.261 126.744 729.114C127.653 728.955 128.313 728.733 128.722 728.449C129.142 728.153 129.352 727.739 129.352 727.205V727.119C129.352 726.244 129.051 725.568 128.449 725.091C127.847 724.614 127.034 724.375 126.011 724.375C124.909 724.375 124.023 724.614 123.352 725.091C122.682 725.568 122.256 726.227 122.074 727.068L114.386 726.795C114.614 725.205 115.199 723.784 116.142 722.534C117.097 721.273 118.403 720.284 120.062 719.568C121.733 718.841 123.739 718.477 126.08 718.477C127.75 718.477 129.29 718.676 130.699 719.074C132.108 719.46 133.335 720.028 134.381 720.778C135.426 721.517 136.233 722.426 136.801 723.506C137.381 724.585 137.67 725.818 137.67 727.205V745H129.83V741.352H129.625C129.159 742.239 128.563 742.989 127.835 743.602C127.119 744.216 126.273 744.676 125.295 744.983C124.33 745.29 123.239 745.443 122.023 745.443ZM124.597 739.989C125.494 739.989 126.301 739.807 127.017 739.443C127.744 739.08 128.324 738.58 128.756 737.943C129.188 737.295 129.403 736.545 129.403 735.693V733.205C129.165 733.33 128.875 733.443 128.534 733.545C128.205 733.648 127.841 733.744 127.443 733.835C127.045 733.926 126.636 734.006 126.216 734.074C125.795 734.142 125.392 734.205 125.006 734.261C124.222 734.386 123.551 734.58 122.994 734.841C122.449 735.102 122.028 735.443 121.733 735.864C121.449 736.273 121.307 736.761 121.307 737.33C121.307 738.193 121.614 738.852 122.227 739.307C122.852 739.761 123.642 739.989 124.597 739.989ZM165.301 745.494C162.54 745.494 160.17 744.926 158.193 743.79C156.227 742.653 154.716 741.074 153.659 739.051C152.602 737.017 152.074 734.665 152.074 731.994C152.074 729.312 152.602 726.96 153.659 724.938C154.727 722.903 156.244 721.318 158.21 720.182C160.188 719.045 162.545 718.477 165.284 718.477C167.705 718.477 169.813 718.915 171.608 719.79C173.415 720.665 174.824 721.903 175.835 723.506C176.858 725.097 177.398 726.966 177.455 729.114H169.665C169.506 727.773 169.051 726.722 168.301 725.96C167.563 725.199 166.597 724.818 165.403 724.818C164.438 724.818 163.591 725.091 162.864 725.636C162.136 726.17 161.568 726.966 161.159 728.023C160.761 729.068 160.562 730.364 160.562 731.909C160.562 733.455 160.761 734.761 161.159 735.83C161.568 736.886 162.136 737.687 162.864 738.233C163.591 738.767 164.438 739.034 165.403 739.034C166.176 739.034 166.858 738.869 167.449 738.54C168.051 738.21 168.545 737.727 168.932 737.091C169.318 736.443 169.562 735.659 169.665 734.739H177.455C177.375 736.898 176.835 738.784 175.835 740.398C174.847 742.011 173.455 743.267 171.659 744.165C169.875 745.051 167.756 745.494 165.301 745.494ZM193.942 745.494C191.192 745.494 188.828 744.932 186.851 743.807C184.885 742.67 183.368 741.091 182.3 739.068C181.243 737.034 180.714 734.676 180.714 731.994C180.714 729.301 181.243 726.943 182.3 724.92C183.368 722.886 184.885 721.307 186.851 720.182C188.828 719.045 191.192 718.477 193.942 718.477C196.692 718.477 199.05 719.045 201.016 720.182C202.993 721.307 204.51 722.886 205.567 724.92C206.635 726.943 207.169 729.301 207.169 731.994C207.169 734.676 206.635 737.034 205.567 739.068C204.51 741.091 202.993 742.67 201.016 743.807C199.05 744.932 196.692 745.494 193.942 745.494ZM193.993 739.205C194.993 739.205 195.839 738.898 196.533 738.284C197.226 737.67 197.754 736.818 198.118 735.727C198.493 734.636 198.68 733.375 198.68 731.943C198.68 730.489 198.493 729.216 198.118 728.125C197.754 727.034 197.226 726.182 196.533 725.568C195.839 724.955 194.993 724.648 193.993 724.648C192.959 724.648 192.084 724.955 191.368 725.568C190.663 726.182 190.124 727.034 189.749 728.125C189.385 729.216 189.203 730.489 189.203 731.943C189.203 733.375 189.385 734.636 189.749 735.727C190.124 736.818 190.663 737.67 191.368 738.284C192.084 738.898 192.959 739.205 193.993 739.205ZM211.439 745V718.818H219.365V723.625H219.655C220.2 722.034 221.121 720.778 222.416 719.858C223.712 718.938 225.257 718.477 227.053 718.477C228.871 718.477 230.428 718.943 231.723 719.875C233.018 720.807 233.842 722.057 234.195 723.625H234.467C234.956 722.068 235.911 720.824 237.331 719.892C238.751 718.949 240.428 718.477 242.359 718.477C244.837 718.477 246.848 719.273 248.393 720.864C249.939 722.443 250.712 724.614 250.712 727.375V745H242.376V729.284C242.376 727.977 242.041 726.983 241.371 726.301C240.7 725.608 239.831 725.261 238.763 725.261C237.615 725.261 236.712 725.636 236.053 726.386C235.405 727.125 235.081 728.119 235.081 729.369V745H227.07V729.199C227.07 727.983 226.74 727.023 226.081 726.318C225.422 725.614 224.553 725.261 223.473 725.261C222.746 725.261 222.104 725.437 221.547 725.79C220.99 726.131 220.553 726.619 220.234 727.256C219.928 727.892 219.774 728.642 219.774 729.506V745H211.439ZM255.876 754.818V718.818H264.126V723.301H264.382C264.723 722.506 265.206 721.739 265.831 721C266.467 720.261 267.274 719.659 268.251 719.193C269.24 718.716 270.422 718.477 271.797 718.477C273.615 718.477 275.314 718.955 276.893 719.909C278.484 720.864 279.768 722.335 280.746 724.324C281.723 726.312 282.212 728.847 282.212 731.926C282.212 734.892 281.74 737.375 280.797 739.375C279.865 741.375 278.604 742.875 277.013 743.875C275.433 744.875 273.678 745.375 271.746 745.375C270.428 745.375 269.286 745.159 268.32 744.727C267.354 744.295 266.541 743.727 265.882 743.023C265.234 742.318 264.734 741.562 264.382 740.756H264.212V754.818H255.876ZM264.041 731.909C264.041 733.318 264.229 734.545 264.604 735.591C264.99 736.636 265.541 737.449 266.257 738.028C266.984 738.597 267.854 738.881 268.865 738.881C269.888 738.881 270.757 738.597 271.473 738.028C272.189 737.449 272.729 736.636 273.092 735.591C273.467 734.545 273.655 733.318 273.655 731.909C273.655 730.5 273.467 729.278 273.092 728.244C272.729 727.21 272.189 726.409 271.473 725.841C270.768 725.273 269.899 724.989 268.865 724.989C267.842 724.989 266.973 725.267 266.257 725.824C265.541 726.381 264.99 727.176 264.604 728.21C264.229 729.244 264.041 730.477 264.041 731.909ZM303.472 733.699V718.818H311.79V745H303.847V740.125H303.574C302.994 741.727 302.006 743 300.608 743.943C299.222 744.875 297.545 745.341 295.58 745.341C293.795 745.341 292.227 744.932 290.875 744.114C289.523 743.295 288.472 742.153 287.722 740.688C286.972 739.21 286.591 737.483 286.58 735.506V718.818H294.915V733.869C294.926 735.29 295.301 736.409 296.04 737.227C296.778 738.045 297.784 738.455 299.057 738.455C299.886 738.455 300.631 738.273 301.29 737.909C301.96 737.534 302.489 736.994 302.875 736.29C303.273 735.574 303.472 734.71 303.472 733.699ZM331.874 718.818V724.955H315.357V718.818H331.874ZM318.817 712.545H327.152V736.767C327.152 737.278 327.232 737.693 327.391 738.011C327.561 738.318 327.805 738.54 328.124 738.676C328.442 738.801 328.822 738.864 329.266 738.864C329.584 738.864 329.919 738.835 330.271 738.778C330.635 738.71 330.908 738.653 331.089 738.608L332.351 744.625C331.953 744.739 331.391 744.881 330.663 745.051C329.947 745.222 329.089 745.33 328.089 745.375C326.135 745.466 324.459 745.239 323.061 744.693C321.675 744.136 320.612 743.273 319.874 742.102C319.146 740.932 318.794 739.46 318.817 737.688V712.545ZM348.084 745.494C345.345 745.494 342.982 744.955 340.993 743.875C339.016 742.784 337.493 741.233 336.425 739.222C335.368 737.199 334.839 734.795 334.839 732.011C334.839 729.307 335.374 726.943 336.442 724.92C337.51 722.886 339.016 721.307 340.959 720.182C342.902 719.045 345.192 718.477 347.828 718.477C349.692 718.477 351.396 718.767 352.942 719.347C354.487 719.926 355.822 720.784 356.947 721.92C358.072 723.057 358.947 724.46 359.572 726.131C360.197 727.79 360.51 729.693 360.51 731.841V733.92H337.754V729.08H352.754C352.743 728.193 352.533 727.403 352.124 726.71C351.714 726.017 351.152 725.477 350.436 725.091C349.732 724.693 348.919 724.494 347.999 724.494C347.067 724.494 346.232 724.705 345.493 725.125C344.754 725.534 344.169 726.097 343.737 726.812C343.305 727.517 343.078 728.318 343.055 729.216V734.142C343.055 735.21 343.266 736.148 343.686 736.955C344.107 737.75 344.703 738.369 345.476 738.812C346.249 739.256 347.169 739.477 348.237 739.477C348.976 739.477 349.646 739.375 350.249 739.17C350.851 738.966 351.368 738.665 351.8 738.267C352.232 737.869 352.555 737.381 352.771 736.801L360.425 737.023C360.107 738.739 359.408 740.233 358.328 741.506C357.26 742.767 355.857 743.75 354.118 744.455C352.379 745.148 350.368 745.494 348.084 745.494ZM364.767 745V718.818H372.864V723.591H373.136C373.614 721.864 374.392 720.58 375.472 719.739C376.551 718.886 377.807 718.46 379.239 718.46C379.625 718.46 380.023 718.489 380.432 718.545C380.841 718.591 381.222 718.665 381.574 718.767V726.011C381.176 725.875 380.653 725.767 380.006 725.688C379.369 725.608 378.801 725.568 378.301 725.568C377.313 725.568 376.42 725.79 375.625 726.233C374.841 726.665 374.222 727.273 373.767 728.057C373.324 728.83 373.102 729.739 373.102 730.784V745H364.767ZM418.141 726.812L410.487 727.017C410.408 726.472 410.192 725.989 409.839 725.568C409.487 725.136 409.027 724.801 408.459 724.562C407.902 724.312 407.254 724.188 406.516 724.188C405.55 724.188 404.726 724.381 404.044 724.767C403.374 725.153 403.044 725.676 403.055 726.335C403.044 726.847 403.249 727.29 403.669 727.665C404.101 728.04 404.868 728.341 405.97 728.568L411.016 729.523C413.629 730.023 415.572 730.852 416.845 732.011C418.129 733.17 418.777 734.705 418.788 736.614C418.777 738.409 418.243 739.972 417.186 741.301C416.141 742.631 414.709 743.665 412.891 744.403C411.072 745.131 408.993 745.494 406.652 745.494C402.913 745.494 399.964 744.727 397.805 743.193C395.658 741.648 394.43 739.58 394.124 736.989L402.357 736.784C402.538 737.739 403.01 738.466 403.771 738.966C404.533 739.466 405.504 739.716 406.686 739.716C407.754 739.716 408.624 739.517 409.294 739.119C409.964 738.722 410.305 738.193 410.317 737.534C410.305 736.943 410.044 736.472 409.533 736.119C409.021 735.756 408.22 735.472 407.129 735.267L402.561 734.398C399.936 733.92 397.982 733.04 396.697 731.756C395.413 730.46 394.777 728.812 394.788 726.812C394.777 725.062 395.243 723.568 396.186 722.33C397.129 721.08 398.47 720.125 400.209 719.466C401.947 718.807 403.999 718.477 406.362 718.477C409.908 718.477 412.703 719.222 414.749 720.71C416.794 722.187 417.925 724.222 418.141 726.812ZM435.114 745.494C432.352 745.494 429.983 744.926 428.006 743.79C426.04 742.653 424.528 741.074 423.472 739.051C422.415 737.017 421.886 734.665 421.886 731.994C421.886 729.312 422.415 726.96 423.472 724.938C424.54 722.903 426.057 721.318 428.023 720.182C430 719.045 432.358 718.477 435.097 718.477C437.517 718.477 439.625 718.915 441.42 719.79C443.227 720.665 444.636 721.903 445.648 723.506C446.67 725.097 447.21 726.966 447.267 729.114H439.477C439.318 727.773 438.864 726.722 438.114 725.96C437.375 725.199 436.409 724.818 435.216 724.818C434.25 724.818 433.403 725.091 432.676 725.636C431.949 726.17 431.381 726.966 430.972 728.023C430.574 729.068 430.375 730.364 430.375 731.909C430.375 733.455 430.574 734.761 430.972 735.83C431.381 736.886 431.949 737.687 432.676 738.233C433.403 738.767 434.25 739.034 435.216 739.034C435.989 739.034 436.67 738.869 437.261 738.54C437.864 738.21 438.358 737.727 438.744 737.091C439.131 736.443 439.375 735.659 439.477 734.739H447.267C447.188 736.898 446.648 738.784 445.648 740.398C444.659 742.011 443.267 743.267 441.472 744.165C439.688 745.051 437.568 745.494 435.114 745.494ZM451.533 745V718.818H459.868V745H451.533ZM455.709 715.767C454.538 715.767 453.533 715.381 452.692 714.608C451.851 713.824 451.43 712.881 451.43 711.778C451.43 710.687 451.851 709.756 452.692 708.983C453.533 708.199 454.538 707.807 455.709 707.807C456.891 707.807 457.896 708.199 458.726 708.983C459.567 709.756 459.987 710.687 459.987 711.778C459.987 712.881 459.567 713.824 458.726 714.608C457.896 715.381 456.891 715.767 455.709 715.767ZM477.412 745.494C474.673 745.494 472.31 744.955 470.321 743.875C468.344 742.784 466.821 741.233 465.753 739.222C464.696 737.199 464.168 734.795 464.168 732.011C464.168 729.307 464.702 726.943 465.77 724.92C466.838 722.886 468.344 721.307 470.287 720.182C472.23 719.045 474.52 718.477 477.156 718.477C479.02 718.477 480.724 718.767 482.27 719.347C483.815 719.926 485.151 720.784 486.276 721.92C487.401 723.057 488.276 724.46 488.901 726.131C489.526 727.79 489.838 729.693 489.838 731.841V733.92H467.082V729.08H482.082C482.071 728.193 481.861 727.403 481.452 726.71C481.043 726.017 480.48 725.477 479.764 725.091C479.06 724.693 478.247 724.494 477.327 724.494C476.395 724.494 475.56 724.705 474.821 725.125C474.082 725.534 473.497 726.097 473.065 726.812C472.634 727.517 472.406 728.318 472.384 729.216V734.142C472.384 735.21 472.594 736.148 473.014 736.955C473.435 737.75 474.031 738.369 474.804 738.812C475.577 739.256 476.497 739.477 477.565 739.477C478.304 739.477 478.974 739.375 479.577 739.17C480.179 738.966 480.696 738.665 481.128 738.267C481.56 737.869 481.884 737.381 482.099 736.801L489.753 737.023C489.435 738.739 488.736 740.233 487.656 741.506C486.588 742.767 485.185 743.75 483.446 744.455C481.707 745.148 479.696 745.494 477.412 745.494ZM502.43 730.068V745H494.095V718.818H502.021V723.625H502.311C502.891 722.023 503.879 720.767 505.277 719.858C506.675 718.938 508.339 718.477 510.271 718.477C512.112 718.477 513.709 718.892 515.061 719.722C516.425 720.54 517.482 721.687 518.232 723.165C518.993 724.631 519.368 726.347 519.357 728.312V745H511.021V729.949C511.033 728.494 510.663 727.358 509.913 726.54C509.175 725.722 508.146 725.312 506.828 725.312C505.953 725.312 505.18 725.506 504.51 725.892C503.851 726.267 503.339 726.807 502.976 727.511C502.624 728.216 502.442 729.068 502.43 730.068ZM536.739 745.494C533.977 745.494 531.608 744.926 529.631 743.79C527.665 742.653 526.153 741.074 525.097 739.051C524.04 737.017 523.511 734.665 523.511 731.994C523.511 729.312 524.04 726.96 525.097 724.938C526.165 722.903 527.682 721.318 529.648 720.182C531.625 719.045 533.983 718.477 536.722 718.477C539.142 718.477 541.25 718.915 543.045 719.79C544.852 720.665 546.261 721.903 547.273 723.506C548.295 725.097 548.835 726.966 548.892 729.114H541.102C540.943 727.773 540.489 726.722 539.739 725.96C539 725.199 538.034 724.818 536.841 724.818C535.875 724.818 535.028 725.091 534.301 725.636C533.574 726.17 533.006 726.966 532.597 728.023C532.199 729.068 532 730.364 532 731.909C532 733.455 532.199 734.761 532.597 735.83C533.006 736.886 533.574 737.687 534.301 738.233C535.028 738.767 535.875 739.034 536.841 739.034C537.614 739.034 538.295 738.869 538.886 738.54C539.489 738.21 539.983 737.727 540.369 737.091C540.756 736.443 541 735.659 541.102 734.739H548.892C548.812 736.898 548.273 738.784 547.273 740.398C546.284 742.011 544.892 743.267 543.097 744.165C541.313 745.051 539.193 745.494 536.739 745.494ZM565.396 745.494C562.658 745.494 560.294 744.955 558.305 743.875C556.328 742.784 554.805 741.233 553.737 739.222C552.68 737.199 552.152 734.795 552.152 732.011C552.152 729.307 552.686 726.943 553.754 724.92C554.822 722.886 556.328 721.307 558.271 720.182C560.214 719.045 562.504 718.477 565.141 718.477C567.004 718.477 568.709 718.767 570.254 719.347C571.8 719.926 573.135 720.784 574.26 721.92C575.385 723.057 576.26 724.46 576.885 726.131C577.51 727.79 577.822 729.693 577.822 731.841V733.92H555.067V729.08H570.067C570.055 728.193 569.845 727.403 569.436 726.71C569.027 726.017 568.464 725.477 567.749 725.091C567.044 724.693 566.232 724.494 565.311 724.494C564.379 724.494 563.544 724.705 562.805 725.125C562.067 725.534 561.482 726.097 561.05 726.812C560.618 727.517 560.391 728.318 560.368 729.216V734.142C560.368 735.21 560.578 736.148 560.999 736.955C561.419 737.75 562.016 738.369 562.788 738.812C563.561 739.256 564.482 739.477 565.55 739.477C566.288 739.477 566.959 739.375 567.561 739.17C568.163 738.966 568.68 738.665 569.112 738.267C569.544 737.869 569.868 737.381 570.084 736.801L577.737 737.023C577.419 738.739 576.72 740.233 575.641 741.506C574.572 742.767 573.169 743.75 571.43 744.455C569.692 745.148 567.68 745.494 565.396 745.494ZM615.25 726.812L607.597 727.017C607.517 726.472 607.301 725.989 606.949 725.568C606.597 725.136 606.136 724.801 605.568 724.562C605.011 724.312 604.364 724.188 603.625 724.188C602.659 724.188 601.835 724.381 601.153 724.767C600.483 725.153 600.153 725.676 600.165 726.335C600.153 726.847 600.358 727.29 600.778 727.665C601.21 728.04 601.977 728.341 603.08 728.568L608.125 729.523C610.739 730.023 612.682 730.852 613.955 732.011C615.239 733.17 615.886 734.705 615.898 736.614C615.886 738.409 615.352 739.972 614.295 741.301C613.25 742.631 611.818 743.665 610 744.403C608.182 745.131 606.102 745.494 603.761 745.494C600.023 745.494 597.074 744.727 594.915 743.193C592.767 741.648 591.54 739.58 591.233 736.989L599.466 736.784C599.648 737.739 600.119 738.466 600.881 738.966C601.642 739.466 602.614 739.716 603.795 739.716C604.864 739.716 605.733 739.517 606.403 739.119C607.074 738.722 607.415 738.193 607.426 737.534C607.415 736.943 607.153 736.472 606.642 736.119C606.131 735.756 605.33 735.472 604.239 735.267L599.67 734.398C597.045 733.92 595.091 733.04 593.807 731.756C592.523 730.46 591.886 728.812 591.898 726.812C591.886 725.062 592.352 723.568 593.295 722.33C594.239 721.08 595.58 720.125 597.318 719.466C599.057 718.807 601.108 718.477 603.472 718.477C607.017 718.477 609.813 719.222 611.858 720.71C613.903 722.187 615.034 724.222 615.25 726.812ZM634.78 718.818V724.955H618.263V718.818H634.78ZM621.723 712.545H630.058V736.767C630.058 737.278 630.138 737.693 630.297 738.011C630.467 738.318 630.712 738.54 631.03 738.676C631.348 738.801 631.729 738.864 632.172 738.864C632.49 738.864 632.825 738.835 633.178 738.778C633.541 738.71 633.814 738.653 633.996 738.608L635.257 744.625C634.859 744.739 634.297 744.881 633.57 745.051C632.854 745.222 631.996 745.33 630.996 745.375C629.041 745.466 627.365 745.239 625.967 744.693C624.581 744.136 623.518 743.273 622.78 742.102C622.053 740.932 621.7 739.46 621.723 737.688V712.545ZM655.925 733.699V718.818H664.243V745H656.3V740.125H656.027C655.447 741.727 654.459 743 653.061 743.943C651.675 744.875 649.999 745.341 648.033 745.341C646.249 745.341 644.68 744.932 643.328 744.114C641.976 743.295 640.925 742.153 640.175 740.688C639.425 739.21 639.044 737.483 639.033 735.506V718.818H647.368V733.869C647.379 735.29 647.754 736.409 648.493 737.227C649.232 738.045 650.237 738.455 651.51 738.455C652.339 738.455 653.084 738.273 653.743 737.909C654.413 737.534 654.942 736.994 655.328 736.29C655.726 735.574 655.925 734.71 655.925 733.699ZM679.111 745.375C677.179 745.375 675.423 744.875 673.844 743.875C672.264 742.875 671.003 741.375 670.06 739.375C669.116 737.375 668.645 734.892 668.645 731.926C668.645 728.847 669.134 726.312 670.111 724.324C671.088 722.335 672.366 720.864 673.946 719.909C675.537 718.955 677.247 718.477 679.077 718.477C680.452 718.477 681.628 718.716 682.605 719.193C683.582 719.659 684.389 720.261 685.026 721C685.662 721.739 686.145 722.506 686.474 723.301H686.645V710.091H694.98V745H686.73V740.756H686.474C686.122 741.562 685.622 742.318 684.974 743.023C684.327 743.727 683.514 744.295 682.537 744.727C681.571 745.159 680.429 745.375 679.111 745.375ZM682.009 738.881C683.02 738.881 683.884 738.597 684.599 738.028C685.315 737.449 685.866 736.636 686.253 735.591C686.639 734.545 686.832 733.318 686.832 731.909C686.832 730.477 686.639 729.244 686.253 728.21C685.878 727.176 685.327 726.381 684.599 725.824C683.884 725.267 683.02 724.989 682.009 724.989C680.974 724.989 680.099 725.273 679.384 725.841C678.668 726.409 678.122 727.21 677.747 728.244C677.384 729.278 677.202 730.5 677.202 731.909C677.202 733.318 677.389 734.545 677.764 735.591C678.139 736.636 678.679 737.449 679.384 738.028C680.099 738.597 680.974 738.881 682.009 738.881ZM712.49 745.494C709.751 745.494 707.388 744.955 705.399 743.875C703.422 742.784 701.899 741.233 700.831 739.222C699.774 737.199 699.246 734.795 699.246 732.011C699.246 729.307 699.78 726.943 700.848 724.92C701.916 722.886 703.422 721.307 705.365 720.182C707.308 719.045 709.598 718.477 712.234 718.477C714.098 718.477 715.803 718.767 717.348 719.347C718.893 719.926 720.229 720.784 721.354 721.92C722.479 723.057 723.354 724.46 723.979 726.131C724.604 727.79 724.916 729.693 724.916 731.841V733.92H702.161V729.08H717.161C717.149 728.193 716.939 727.403 716.53 726.71C716.121 726.017 715.558 725.477 714.842 725.091C714.138 724.693 713.325 724.494 712.405 724.494C711.473 724.494 710.638 724.705 709.899 725.125C709.161 725.534 708.575 726.097 708.143 726.812C707.712 727.517 707.484 728.318 707.462 729.216V734.142C707.462 735.21 707.672 736.148 708.092 736.955C708.513 737.75 709.109 738.369 709.882 738.812C710.655 739.256 711.575 739.477 712.643 739.477C713.382 739.477 714.053 739.375 714.655 739.17C715.257 738.966 715.774 738.665 716.206 738.267C716.638 737.869 716.962 737.381 717.178 736.801L724.831 737.023C724.513 738.739 723.814 740.233 722.734 741.506C721.666 742.767 720.263 743.75 718.524 744.455C716.786 745.148 714.774 745.494 712.49 745.494ZM737.509 730.068V745H729.173V718.818H737.099V723.625H737.389C737.969 722.023 738.957 720.767 740.355 719.858C741.753 718.938 743.418 718.477 745.349 718.477C747.19 718.477 748.787 718.892 750.139 719.722C751.503 720.54 752.56 721.687 753.31 723.165C754.071 724.631 754.446 726.347 754.435 728.312V745H746.099V729.949C746.111 728.494 745.741 727.358 744.991 726.54C744.253 725.722 743.224 725.312 741.906 725.312C741.031 725.312 740.259 725.506 739.588 725.892C738.929 726.267 738.418 726.807 738.054 727.511C737.702 728.216 737.52 729.068 737.509 730.068ZM774.374 718.818V724.955H757.857V718.818H774.374ZM761.317 712.545H769.652V736.767C769.652 737.278 769.732 737.693 769.891 738.011C770.061 738.318 770.305 738.54 770.624 738.676C770.942 738.801 771.322 738.864 771.766 738.864C772.084 738.864 772.419 738.835 772.771 738.778C773.135 738.71 773.408 738.653 773.589 738.608L774.851 744.625C774.453 744.739 773.891 744.881 773.163 745.051C772.447 745.222 771.589 745.33 770.589 745.375C768.635 745.466 766.959 745.239 765.561 744.693C764.175 744.136 763.112 743.273 762.374 742.102C761.646 740.932 761.294 739.46 761.317 737.688V712.545Z" fill="black"/>
<g filter="url(#filter1_d_126_2)">
<rect y="866" width="1440" height="134" fill="#FBFFD0"/>
<rect x="8" y="874" width="1424" height="118" stroke="black" stroke-width="16"/>
</g>
</g>
<rect x="10" y="10" width="1420" height="980" rx="30" stroke="black" stroke-width="20"/>
<defs>
<filter id="filter0_d_126_2" x="0" y="0" width="1440" height="170" filterUnits="userSpaceOnUse" color-interpolation-filters="sRGB">
<feFlood flood-opacity="0" result="BackgroundImageFix"/>
<feColorMatrix in="SourceAlpha" type="matrix" values="0 0 0 0 0 0 0 0 0 0 0 0 0 0 0 0 0 0 127 0" result="hardAlpha"/>
<feOffset/>
<feComposite in2="hardAlpha" operator="out"/>
<feColorMatrix type="matrix" values="0 0 0 0 0 0 0 0 0 0 0 0 0 0 0 0 0 0 1 0"/>
<feBlend mode="normal" in2="BackgroundImageFix" result="effect1_dropShadow_126_2"/>
<feBlend mode="normal" in="SourceGraphic" in2="effect1_dropShadow_126_2" result="shape"/>
</filter>
<filter id="filter1_d_126_2" x="0" y="866" width="1440" height="134" filterUnits="userSpaceOnUse" color-interpolation-filters="sRGB">
<feFlood flood-opacity="0" result="BackgroundImageFix"/>
<feColorMatrix in="SourceAlpha" type="matrix" values="0 0 0 0 0 0 0 0 0 0 0 0 0 0 0 0 0 0 127 0" result="hardAlpha"/>
<feOffset/>
<feComposite in2="hardAlpha" operator="out"/>
<feColorMatrix type="matrix" values="0 0 0 0 0 0 0 0 0 0 0 0 0 0 0 0 0 0 1 0"/>
<feBlend mode="normal" in2="BackgroundImageFix" result="effect1_dropShadow_126_2"/>
<feBlend mode="normal" in="SourceGraphic" in2="effect1_dropShadow_126_2" result="shape"/>
</filter>
<clipPath id="clip0_126_2">
<rect width="1440" height="1000" rx="40" fill="white"/>
</clipPath>
</defs>
</svg>
