<svg width="1440" height="1000" viewBox="0 0 1440 1000" fill="none" xmlns="http://www.w3.org/2000/svg">
<rect x="10" y="10" width="1420" height="980" rx="30" fill="#FBFFD0"/>
<rect x="230" y="260" width="192" height="192" rx="15" fill="black"/>
<rect x="434" y="260" width="192" height="192" rx="15" fill="black"/>
<rect x="638" y="260" width="192" height="192" rx="15" fill="black"/>
<rect x="230" y="260" width="192" height="192" rx="15" fill="black"/>
<rect x="434" y="260" width="192" height="192" rx="15" fill="black"/>
<rect x="638" y="260" width="192" height="192" rx="15" fill="black"/>
<rect x="876" y="260" width="328" height="203" rx="15" fill="black"/>
<rect x="876" y="481" width="328" height="258" rx="15" fill="black"/>
<rect x="876" y="757" width="328" height="106" rx="15" fill="black"/>
<rect x="230" y="463" width="192" height="194" rx="15" fill="black"/>
<rect x="434" y="463" width="192" height="194" rx="15" fill="black"/>
<rect x="638" y="463" width="192" height="194" rx="15" fill="black"/>
<rect x="434" y="463" width="192" height="194" rx="15" fill="black"/>
<rect x="638" y="463" width="192" height="194" rx="15" fill="black"/>
<rect x="230" y="668" width="192" height="192" rx="15" fill="black"/>
<rect x="434" y="668" width="192" height="192" rx="15" fill="black"/>
<rect x="638" y="668" width="192" height="192" rx="15" fill="black"/>
<rect x="230" y="668" width="192" height="192" rx="15" fill="black"/>
<rect x="638" y="668" width="192" height="192" rx="15" fill="black"/>
<g filter="url(#filter0_d_114_46)">
<rect width="1440" height="170" fill="#F9FFB5"/>
<path d="M84.6818 76.4091C84.5303 74.7424 83.8561 73.447 82.6591 72.5227C81.4773 71.5833 79.7879 71.1136 77.5909 71.1136C76.1364 71.1136 74.9242 71.303 73.9545 71.6818C72.9848 72.0606 72.2576 72.5833 71.7727 73.25C71.2879 73.9015 71.0379 74.6515 71.0227 75.5C70.9924 76.197 71.1288 76.8106 71.4318 77.3409C71.75 77.8712 72.2045 78.3409 72.7955 78.75C73.4015 79.1439 74.1288 79.4924 74.9773 79.7955C75.8258 80.0985 76.7803 80.3636 77.8409 80.5909L81.8409 81.5C84.1439 82 86.1742 82.6667 87.9318 83.5C89.7045 84.3333 91.1894 85.3258 92.3864 86.4773C93.5985 87.6288 94.5152 88.9545 95.1364 90.4545C95.7576 91.9545 96.0758 93.6364 96.0909 95.5C96.0758 98.4394 95.3333 100.962 93.8636 103.068C92.3939 105.174 90.2803 106.788 87.5227 107.909C84.7803 109.03 81.4697 109.591 77.5909 109.591C73.697 109.591 70.303 109.008 67.4091 107.841C64.5152 106.674 62.2652 104.902 60.6591 102.523C59.053 100.144 58.2273 97.1364 58.1818 93.5H68.9545C69.0455 95 69.447 96.25 70.1591 97.25C70.8712 98.25 71.8485 99.0076 73.0909 99.5227C74.3485 100.038 75.803 100.295 77.4545 100.295C78.9697 100.295 80.2576 100.091 81.3182 99.6818C82.3939 99.2727 83.2197 98.7045 83.7955 97.9773C84.3712 97.25 84.6667 96.4167 84.6818 95.4773C84.6667 94.5985 84.3939 93.8485 83.8636 93.2273C83.3333 92.5909 82.5152 92.0455 81.4091 91.5909C80.3182 91.1212 78.9242 90.6894 77.2273 90.2955L72.3636 89.1591C68.3333 88.2348 65.1591 86.7424 62.8409 84.6818C60.5227 82.6061 59.3712 79.803 59.3864 76.2727C59.3712 73.3939 60.1439 70.8712 61.7045 68.7045C63.2652 66.5379 65.4242 64.8485 68.1818 63.6364C70.9394 62.4242 74.0833 61.8182 77.6136 61.8182C81.2197 61.8182 84.3485 62.4318 87 63.6591C89.6667 64.8712 91.7348 66.5758 93.2045 68.7727C94.6742 70.9697 95.4242 73.5151 95.4545 76.4091H84.6818ZM124.295 93.9318V74.0909H135.386V109H124.795V102.5H124.432C123.659 104.636 122.341 106.333 120.477 107.591C118.629 108.833 116.394 109.455 113.773 109.455C111.394 109.455 109.303 108.909 107.5 107.818C105.697 106.727 104.295 105.205 103.295 103.25C102.295 101.28 101.788 98.9773 101.773 96.3409V74.0909H112.886V94.1591C112.902 96.053 113.402 97.5455 114.386 98.6364C115.371 99.7273 116.712 100.273 118.409 100.273C119.515 100.273 120.508 100.03 121.386 99.5455C122.28 99.0455 122.985 98.3258 123.5 97.3864C124.03 96.4318 124.295 95.2803 124.295 93.9318ZM155.21 109.5C152.634 109.5 150.294 108.833 148.188 107.5C146.081 106.167 144.4 104.167 143.142 101.5C141.884 98.8333 141.256 95.5227 141.256 91.5682C141.256 87.4621 141.907 84.0833 143.21 81.4318C144.513 78.7803 146.218 76.8182 148.324 75.5455C150.445 74.2727 152.725 73.6364 155.165 73.6364C156.998 73.6364 158.566 73.9545 159.869 74.5909C161.172 75.2121 162.248 76.0152 163.097 77C163.945 77.9848 164.589 79.0076 165.028 80.0682H165.256V62.4545H176.369V109H165.369V103.341H165.028C164.559 104.417 163.892 105.424 163.028 106.364C162.165 107.303 161.081 108.061 159.778 108.636C158.491 109.212 156.968 109.5 155.21 109.5ZM159.074 100.841C160.422 100.841 161.574 100.462 162.528 99.7045C163.483 98.9318 164.218 97.8485 164.733 96.4545C165.248 95.0606 165.506 93.4242 165.506 91.5455C165.506 89.6364 165.248 87.9924 164.733 86.6136C164.233 85.2348 163.498 84.1742 162.528 83.4318C161.574 82.6894 160.422 82.3182 159.074 82.3182C157.695 82.3182 156.528 82.697 155.574 83.4545C154.619 84.2121 153.892 85.2803 153.392 86.6591C152.907 88.0379 152.665 89.6667 152.665 91.5455C152.665 93.4242 152.915 95.0606 153.415 96.4545C153.915 97.8485 154.634 98.9318 155.574 99.7045C156.528 100.462 157.695 100.841 159.074 100.841ZM199.693 109.659C196.027 109.659 192.875 108.909 190.239 107.409C187.617 105.894 185.595 103.788 184.17 101.091C182.761 98.3788 182.057 95.2348 182.057 91.6591C182.057 88.0682 182.761 84.9242 184.17 82.2273C185.595 79.5152 187.617 77.4091 190.239 75.9091C192.875 74.3939 196.027 73.6364 199.693 73.6364C203.36 73.6364 206.504 74.3939 209.125 75.9091C211.761 77.4091 213.784 79.5152 215.193 82.2273C216.617 84.9242 217.33 88.0682 217.33 91.6591C217.33 95.2348 216.617 98.3788 215.193 101.091C213.784 103.788 211.761 105.894 209.125 107.409C206.504 108.909 203.36 109.659 199.693 109.659ZM199.761 101.273C201.095 101.273 202.223 100.864 203.148 100.045C204.072 99.2273 204.777 98.0909 205.261 96.6364C205.761 95.1818 206.011 93.5 206.011 91.5909C206.011 89.6515 205.761 87.9545 205.261 86.5C204.777 85.0455 204.072 83.9091 203.148 83.0909C202.223 82.2727 201.095 81.8636 199.761 81.8636C198.383 81.8636 197.216 82.2727 196.261 83.0909C195.322 83.9091 194.602 85.0455 194.102 86.5C193.617 87.9545 193.375 89.6515 193.375 91.5909C193.375 93.5 193.617 95.1818 194.102 96.6364C194.602 98.0909 195.322 99.2273 196.261 100.045C197.216 100.864 198.383 101.273 199.761 101.273ZM233.045 99.8409L233.091 86.5909H234.636L244.455 74.0909H257.045L242.455 92H239.523L233.045 99.8409ZM223.023 109V62.4545H234.136V109H223.023ZM244.705 109L235.568 94.5L242.886 86.6136L257.545 109H244.705ZM283.545 93.9318V74.0909H294.636V109H284.045V102.5H283.682C282.909 104.636 281.591 106.333 279.727 107.591C277.879 108.833 275.644 109.455 273.023 109.455C270.644 109.455 268.553 108.909 266.75 107.818C264.947 106.727 263.545 105.205 262.545 103.25C261.545 101.28 261.038 98.9773 261.023 96.3409V74.0909H272.136V94.1591C272.152 96.053 272.652 97.5455 273.636 98.6364C274.621 99.7273 275.962 100.273 277.659 100.273C278.765 100.273 279.758 100.03 280.636 99.5455C281.53 99.0455 282.235 98.3258 282.75 97.3864C283.28 96.4318 283.545 95.2803 283.545 93.9318Z" fill="black"/>
<rect x="319" y="55" width="59" height="59" rx="5" fill="black"/>
<rect x="8" y="8" width="1424" height="154" stroke="black" stroke-width="16"/>
</g>
<rect x="10" y="10" width="1420" height="980" rx="30" stroke="black" stroke-width="20"/>
<defs>
<filter id="filter0_d_114_46" x="0" y="0" width="1440" height="170" filterUnits="userSpaceOnUse" color-interpolation-filters="sRGB">
<feFlood flood-opacity="0" result="BackgroundImageFix"/>
<feColorMatrix in="SourceAlpha" type="matrix" values="0 0 0 0 0 0 0 0 0 0 0 0 0 0 0 0 0 0 127 0" result="hardAlpha"/>
<feOffset/>
<feComposite in2="hardAlpha" operator="out"/>
<feColorMatrix type="matrix" values="0 0 0 0 0 0 0 0 0 0 0 0 0 0 0 0 0 0 1 0"/>
<feBlend mode="normal" in2="BackgroundImageFix" result="effect1_dropShadow_114_46"/>
<feBlend mode="normal" in="SourceGraphic" in2="effect1_dropShadow_114_46" result="shape"/>
</filter>
</defs>
</svg>
