<svg width="1440" height="1000" viewBox="0 0 1440 1000" fill="none" xmlns="http://www.w3.org/2000/svg">
<g clip-path="url(#clip0_2_364)">
<rect width="1440" height="1000" fill="white"/>
<g clip-path="url(#clip1_2_364)">
<rect x="265" y="406" width="60" height="60" rx="5" fill="#EDF2F5"/>
<rect x="329" y="406" width="60" height="60" rx="5" fill="#EDF2F5"/>
<rect x="393" y="406" width="60" height="60" rx="5" fill="#EDF2F5"/>
<rect x="265" y="406" width="60" height="60" rx="5" fill="#EDF2F5"/>
<rect x="329" y="406" width="60" height="60" rx="5" fill="#EDF2F5"/>
<rect x="393" y="406" width="60" height="60" rx="5" fill="#EDF2F5"/>
<rect x="265" y="470" width="60" height="60" rx="5" fill="#EDF2F5"/>
<rect x="329" y="470" width="60" height="60" rx="5" fill="#EDF2F5"/>
<rect x="393" y="470" width="60" height="60" rx="5" fill="#EDF2F5"/>
<rect x="265" y="470" width="60" height="60" rx="5" fill="#EDF2F5"/>
<rect x="393" y="470" width="60" height="60" rx="5" fill="#EDF2F5"/>
<rect x="265" y="534" width="60" height="60" rx="5" fill="#EDF2F5"/>
<rect x="329" y="534" width="60" height="60" rx="5" fill="#EDF2F5"/>
<rect x="393" y="534" width="60" height="60" rx="5" fill="#EDF2F5"/>
<rect x="265" y="534" width="60" height="60" rx="5" fill="#EDF2F5"/>
<rect x="329" y="534" width="60" height="60" rx="5" fill="#EDF2F5"/>
</g>
<g clip-path="url(#clip2_2_364)">
<rect x="265" y="204" width="60" height="60" rx="5" fill="#E3E4F9"/>
<rect x="329" y="204" width="60" height="60" rx="5" fill="#E3E4F9"/>
<rect x="393" y="204" width="60" height="60" rx="5" fill="#E3E4F9"/>
<rect x="265" y="204" width="60" height="60" rx="5" fill="#E3E4F9"/>
<rect x="329" y="204" width="60" height="60" rx="5" fill="#E3E4F9"/>
<rect x="393" y="204" width="60" height="60" rx="5" fill="#E3E4F9"/>
<rect x="265" y="268" width="60" height="60" rx="5" fill="#E3E4F9"/>
<rect x="329" y="268" width="60" height="60" rx="5" fill="#E3E4F9"/>
<rect x="393" y="268" width="60" height="60" rx="5" fill="#E3E4F9"/>
<rect x="265" y="268" width="60" height="60" rx="5" fill="#E3E4F9"/>
<rect x="329" y="268" width="60" height="60" rx="5" fill="#E3E4F9"/>
<rect x="393" y="268" width="60" height="60" rx="5" fill="#E3E4F9"/>
<rect x="265" y="332" width="60" height="60" rx="5" fill="#E3E4F9"/>
<rect x="329" y="332" width="60" height="60" rx="5" fill="#E3E4F9"/>
<rect x="393" y="332" width="60" height="60" rx="5" fill="#E3E4F9"/>
<rect x="265" y="332" width="60" height="60" rx="5" fill="#E3E4F9"/>
<rect x="329" y="332" width="60" height="60" rx="5" fill="#E3E4F9"/>
<rect x="393" y="332" width="60" height="60" rx="5" fill="#E3E4F9"/>
</g>
<g clip-path="url(#clip3_2_364)">
<rect x="467" y="406" width="60" height="60" rx="5" fill="#EDF2F5"/>
<rect x="531" y="406" width="60" height="60" rx="5" fill="#EDF2F5"/>
<rect x="595" y="406" width="60" height="60" rx="5" fill="#ECECEC"/>
<rect x="467" y="406" width="60" height="60" rx="5" fill="#EDF2F5"/>
<rect x="531" y="406" width="60" height="60" rx="5" fill="#EDF2F5"/>
<rect x="595" y="406" width="60" height="60" rx="5" fill="#E3E4F9"/>
<rect x="467" y="470" width="60" height="60" rx="5" fill="#EDF2F5"/>
<rect x="531" y="470" width="60" height="60" rx="5" fill="#EDF2F5"/>
<rect x="595" y="470" width="60" height="60" rx="5" fill="#ECECEC"/>
<rect x="467" y="470" width="60" height="60" rx="5" fill="#EDF2F5"/>
<rect x="531" y="470" width="60" height="60" rx="5" fill="#EDF2F5"/>
<rect x="595" y="470" width="60" height="60" rx="5" fill="#E3E4F9"/>
<rect x="467" y="534" width="60" height="60" rx="5" fill="#EDF2F5"/>
<rect x="531" y="534" width="60" height="60" rx="5" fill="#EDF2F5"/>
<rect x="595" y="534" width="60" height="60" rx="5" fill="#ECECEC"/>
<rect x="467" y="534" width="60" height="60" rx="5" fill="#EDF2F5"/>
<rect x="531" y="534" width="60" height="60" rx="5" fill="#EDF2F5"/>
<rect x="595" y="534" width="60" height="60" rx="5" fill="#ACADD2"/>
</g>
<g clip-path="url(#clip4_2_364)">
<rect x="669" y="406" width="60" height="60" rx="5" fill="#EDF2F5"/>
<rect x="733" y="406" width="60" height="60" rx="5" fill="#EDF2F5"/>
<rect x="797" y="406" width="60" height="60" rx="5" fill="#EDF2F5"/>
<rect x="669" y="406" width="60" height="60" rx="5" fill="#EDF2F5"/>
<rect x="733" y="406" width="60" height="60" rx="5" fill="#EDF2F5"/>
<rect x="797" y="406" width="60" height="60" rx="5" fill="#EDF2F5"/>
<rect x="669" y="470" width="60" height="60" rx="5" fill="#EDF2F5"/>
<rect x="733" y="470" width="60" height="60" rx="5" fill="#EDF2F5"/>
<rect x="797" y="470" width="60" height="60" rx="5" fill="#EDF2F5"/>
<rect x="669" y="470" width="60" height="60" rx="5" fill="#EDF2F5"/>
<rect x="733" y="470" width="60" height="60" rx="5" fill="#EDF2F5"/>
<rect x="797" y="470" width="60" height="60" rx="5" fill="#EDF2F5"/>
<rect x="669" y="534" width="60" height="60" rx="5" fill="#EDF2F5"/>
<rect x="733" y="534" width="60" height="60" rx="5" fill="#EDF2F5"/>
<rect x="797" y="534" width="60" height="60" rx="5" fill="#EDF2F5"/>
<rect x="669" y="534" width="60" height="60" rx="5" fill="#EDF2F5"/>
<rect x="733" y="534" width="60" height="60" rx="5" fill="#EDF2F5"/>
<rect x="797" y="534" width="60" height="60" rx="5" fill="#EDF2F5"/>
</g>
<g clip-path="url(#clip5_2_364)">
<rect x="265" y="608" width="60" height="60" rx="5" fill="#EDF2F5"/>
<rect x="329" y="608" width="60" height="60" rx="5" fill="#EDF2F5"/>
<rect x="393" y="608" width="60" height="60" rx="5" fill="#EDF2F5"/>
<rect x="265" y="608" width="60" height="60" rx="5" fill="#EDF2F5"/>
<rect x="329" y="608" width="60" height="60" rx="5" fill="#EDF2F5"/>
<rect x="393" y="608" width="60" height="60" rx="5" fill="#EDF2F5"/>
<rect x="265" y="672" width="60" height="60" rx="5" fill="#EDF2F5"/>
<rect x="329" y="672" width="60" height="60" rx="5" fill="#EDF2F5"/>
<rect x="393" y="672" width="60" height="60" rx="5" fill="#EDF2F5"/>
<rect x="265" y="672" width="60" height="60" rx="5" fill="#EDF2F5"/>
<rect x="329" y="672" width="60" height="60" rx="5" fill="#EDF2F5"/>
<rect x="393" y="672" width="60" height="60" rx="5" fill="#EDF2F5"/>
<rect x="265" y="736" width="60" height="60" rx="5" fill="#EDF2F5"/>
<rect x="329" y="736" width="60" height="60" rx="5" fill="#EDF2F5"/>
<rect x="393" y="736" width="60" height="60" rx="5" fill="#EDF2F5"/>
<rect x="265" y="736" width="60" height="60" rx="5" fill="#EDF2F5"/>
<rect x="329" y="736" width="60" height="60" rx="5" fill="#EDF2F5"/>
<rect x="393" y="736" width="60" height="60" rx="5" fill="#EDF2F5"/>
</g>
<g clip-path="url(#clip6_2_364)">
<rect x="467" y="608" width="60" height="60" rx="5" fill="#EDF2F5"/>
<rect x="531" y="608" width="60" height="60" rx="5" fill="#EDF2F5"/>
<rect x="595" y="608" width="60" height="60" rx="5" fill="#ECECEC"/>
<rect x="467" y="608" width="60" height="60" rx="5" fill="#EDF2F5"/>
<rect x="531" y="608" width="60" height="60" rx="5" fill="#EDF2F5"/>
<rect x="595" y="608" width="60" height="60" rx="5" fill="#E3E4F9"/>
<rect x="467" y="672" width="60" height="60" rx="5" fill="#EDF2F5"/>
<rect x="531" y="672" width="60" height="60" rx="5" fill="#EDF2F5"/>
<rect x="595" y="672" width="60" height="60" rx="5" fill="#ECECEC"/>
<rect x="467" y="672" width="60" height="60" rx="5" fill="#EDF2F5"/>
<rect x="531" y="672" width="60" height="60" rx="5" fill="#EDF2F5"/>
<rect x="595" y="672" width="60" height="60" rx="5" fill="#E3E4F9"/>
<rect x="467" y="736" width="60" height="60" rx="5" fill="#EDF2F5"/>
<rect x="531" y="736" width="60" height="60" rx="5" fill="#EDF2F5"/>
<rect x="595" y="736" width="60" height="60" rx="5" fill="#ECECEC"/>
<rect x="467" y="736" width="60" height="60" rx="5" fill="#EDF2F5"/>
<rect x="531" y="736" width="60" height="60" rx="5" fill="#EDF2F5"/>
<rect x="595" y="736" width="60" height="60" rx="5" fill="#E3E4F9"/>
</g>
<g clip-path="url(#clip7_2_364)">
<rect x="669" y="608" width="60" height="60" rx="5" fill="#EDF2F5"/>
<rect x="733" y="608" width="60" height="60" rx="5" fill="#EDF2F5"/>
<rect x="797" y="608" width="60" height="60" rx="5" fill="#EDF2F5"/>
<rect x="669" y="608" width="60" height="60" rx="5" fill="#EDF2F5"/>
<rect x="733" y="608" width="60" height="60" rx="5" fill="#EDF2F5"/>
<rect x="797" y="608" width="60" height="60" rx="5" fill="#EDF2F5"/>
<rect x="669" y="672" width="60" height="60" rx="5" fill="#EDF2F5"/>
<rect x="733" y="672" width="60" height="60" rx="5" fill="#EDF2F5"/>
<rect x="797" y="672" width="60" height="60" rx="5" fill="#EDF2F5"/>
<rect x="669" y="672" width="60" height="60" rx="5" fill="#EDF2F5"/>
<rect x="733" y="672" width="60" height="60" rx="5" fill="#EDF2F5"/>
<rect x="797" y="672" width="60" height="60" rx="5" fill="#EDF2F5"/>
<rect x="669" y="736" width="60" height="60" rx="5" fill="#EDF2F5"/>
<rect x="733" y="736" width="60" height="60" rx="5" fill="#EDF2F5"/>
<rect x="797" y="736" width="60" height="60" rx="5" fill="#EDF2F5"/>
<rect x="669" y="736" width="60" height="60" rx="5" fill="#EDF2F5"/>
<rect x="733" y="736" width="60" height="60" rx="5" fill="#EDF2F5"/>
<rect x="797" y="736" width="60" height="60" rx="5" fill="#EDF2F5"/>
</g>
<g clip-path="url(#clip8_2_364)">
<rect x="669" y="204" width="60" height="60" rx="5" fill="#EDF2F5"/>
<rect x="733" y="204" width="60" height="60" rx="5" fill="#EDF2F5"/>
<rect x="797" y="204" width="60" height="60" rx="5" fill="#EDF2F5"/>
<rect x="669" y="204" width="60" height="60" rx="5" fill="#EDF2F5"/>
<rect x="733" y="204" width="60" height="60" rx="5" fill="#EDF2F5"/>
<rect x="797" y="204" width="60" height="60" rx="5" fill="#EDF2F5"/>
<rect x="669" y="268" width="60" height="60" rx="5" fill="#EDF2F5"/>
<rect x="733" y="268" width="60" height="60" rx="5" fill="#EDF2F5"/>
<rect x="797" y="268" width="60" height="60" rx="5" fill="#EDF2F5"/>
<rect x="733" y="268" width="60" height="60" rx="5" fill="#EDF2F5"/>
<rect x="797" y="268" width="60" height="60" rx="5" fill="#EDF2F5"/>
<rect x="669" y="332" width="60" height="60" rx="5" fill="#EDF2F5"/>
<rect x="733" y="332" width="60" height="60" rx="5" fill="#E3E4F9"/>
<rect x="797" y="332" width="60" height="60" rx="5" fill="#EDF2F5"/>
<rect x="669" y="332" width="60" height="60" rx="5" fill="#E3E4F9"/>
<rect x="797" y="332" width="60" height="60" rx="5" fill="#E3E4F9"/>
</g>
<g clip-path="url(#clip9_2_364)">
<rect x="467" y="204" width="60" height="60" rx="5" fill="#ECECEC"/>
<rect x="531" y="204" width="60" height="60" rx="5" fill="#ECECEC"/>
<rect x="595" y="204" width="60" height="60" rx="5" fill="#ECECEC"/>
<rect x="467" y="204" width="60" height="60" rx="5" fill="#E3E4F9"/>
<rect x="531" y="204" width="60" height="60" rx="5" fill="#E3E4F9"/>
<rect x="597" y="206" width="56" height="56" rx="3" fill="#FFA3A3" stroke="#E16262" stroke-width="4"/>
<rect x="467" y="268" width="60" height="60" rx="5" fill="#ECECEC"/>
<rect x="531" y="268" width="60" height="60" rx="5" fill="#ECECEC"/>
<rect x="595" y="268" width="60" height="60" rx="5" fill="#ECECEC"/>
<rect x="467" y="268" width="60" height="60" rx="5" fill="#E3E4F9"/>
<rect x="531" y="268" width="60" height="60" rx="5" fill="#E3E4F9"/>
<rect x="595" y="268" width="60" height="60" rx="5" fill="#E3E4F9"/>
<rect x="467" y="332" width="60" height="60" rx="5" fill="#ECECEC"/>
<rect x="531" y="332" width="60" height="60" rx="5" fill="#ECECEC"/>
<rect x="595" y="332" width="60" height="60" rx="5" fill="#ECECEC"/>
<rect x="467" y="332" width="60" height="60" rx="5" fill="#E3E4F9"/>
<rect x="531" y="332" width="60" height="60" rx="5" fill="#E3E4F9"/>
<rect x="595" y="332" width="60" height="60" rx="5" fill="#4E5775"/>
</g>
<g filter="url(#filter0_d_2_364)">
<rect width="1440" height="70" fill="white"/>
<path d="M49.4446 31.723C49.3736 30.9418 49.0575 30.3345 48.4964 29.9013C47.9425 29.4609 47.1506 29.2408 46.1207 29.2408C45.4389 29.2408 44.8707 29.3295 44.4162 29.5071C43.9616 29.6847 43.6207 29.9297 43.3935 30.2422C43.1662 30.5476 43.049 30.8991 43.0419 31.2969C43.0277 31.6236 43.0916 31.9112 43.2337 32.1598C43.3828 32.4084 43.5959 32.6286 43.8729 32.8203C44.157 33.005 44.4979 33.1683 44.8956 33.3104C45.2933 33.4524 45.7408 33.5767 46.2379 33.6832L48.1129 34.1094C49.1925 34.3438 50.1442 34.6562 50.968 35.0469C51.799 35.4375 52.495 35.9027 53.0561 36.4425C53.6243 36.9822 54.054 37.6037 54.3452 38.3068C54.6364 39.0099 54.7855 39.7983 54.7926 40.6719C54.7855 42.0497 54.4375 43.2322 53.7486 44.2195C53.0597 45.2067 52.0689 45.9631 50.7763 46.4886C49.4908 47.0142 47.9389 47.277 46.1207 47.277C44.2955 47.277 42.7045 47.0036 41.348 46.4567C39.9915 45.9098 38.9368 45.0788 38.1839 43.9638C37.4311 42.8487 37.044 41.4389 37.0227 39.7344H42.0724C42.1151 40.4375 42.3033 41.0234 42.6371 41.4922C42.9709 41.9609 43.429 42.3161 44.0114 42.5575C44.6009 42.799 45.2827 42.9197 46.0568 42.9197C46.767 42.9197 47.3707 42.8239 47.8679 42.6321C48.3722 42.4403 48.7592 42.174 49.0291 41.8331C49.299 41.4922 49.4375 41.1016 49.4446 40.6612C49.4375 40.2493 49.3097 39.8977 49.0611 39.6065C48.8125 39.3082 48.429 39.0526 47.9105 38.8395C47.3991 38.6193 46.7457 38.4169 45.9503 38.2322L43.6705 37.6996C41.7812 37.2663 40.2933 36.5668 39.2067 35.6009C38.12 34.6278 37.5803 33.3139 37.5874 31.6591C37.5803 30.3097 37.9425 29.1271 38.674 28.1115C39.4055 27.0959 40.4176 26.304 41.7102 25.7358C43.0028 25.1676 44.4766 24.8835 46.1314 24.8835C47.8217 24.8835 49.2884 25.1712 50.5312 25.7464C51.7812 26.3146 52.7507 27.1136 53.4396 28.1435C54.1286 29.1733 54.4801 30.3665 54.4943 31.723H49.4446ZM68.0135 39.9368V30.6364H73.2124V47H68.2479V43.9531H68.0774C67.7152 44.9545 67.0973 45.75 66.2237 46.3395C65.3572 46.9219 64.3097 47.2131 63.081 47.2131C61.9659 47.2131 60.9858 46.9574 60.1406 46.446C59.2955 45.9347 58.6385 45.2209 58.1697 44.3047C57.701 43.3814 57.4631 42.3018 57.456 41.0661V30.6364H62.6655V40.0433C62.6726 40.9311 62.907 41.6307 63.3686 42.142C63.8303 42.6534 64.4588 42.9091 65.2543 42.9091C65.7727 42.9091 66.2379 42.7955 66.6499 42.5682C67.0689 42.3338 67.3991 41.9964 67.6406 41.5561C67.8892 41.1087 68.0135 40.5689 68.0135 39.9368ZM82.5048 47.2344C81.2974 47.2344 80.2001 46.9219 79.2129 46.2969C78.2257 45.6719 77.4373 44.7344 76.8478 43.4844C76.2583 42.2344 75.9636 40.6825 75.9636 38.8288C75.9636 36.9041 76.269 35.3203 76.8798 34.0774C77.4906 32.8345 78.2896 31.9148 79.2768 31.3182C80.2711 30.7216 81.34 30.4233 82.4835 30.4233C83.3429 30.4233 84.0779 30.5724 84.6887 30.8707C85.2995 31.1619 85.8038 31.5384 86.2015 32C86.5993 32.4616 86.9011 32.9411 87.1071 33.4382H87.2136V25.1818H92.4231V47H87.2669V44.3473H87.1071C86.8869 44.8516 86.5744 45.3239 86.1696 45.7642C85.7647 46.2045 85.2569 46.5597 84.6461 46.8295C84.0424 47.0994 83.3287 47.2344 82.5048 47.2344ZM84.3159 43.1754C84.948 43.1754 85.4877 42.9979 85.9352 42.6428C86.3826 42.2805 86.7271 41.7727 86.9686 41.1193C87.21 40.4659 87.3308 39.6989 87.3308 38.8182C87.3308 37.9233 87.21 37.1527 86.9686 36.5064C86.7342 35.8601 86.3897 35.3629 85.9352 35.0149C85.4877 34.6669 84.948 34.4929 84.3159 34.4929C83.6696 34.4929 83.1227 34.6705 82.6752 35.0256C82.2278 35.3807 81.8869 35.8814 81.6525 36.5277C81.4252 37.174 81.3116 37.9375 81.3116 38.8182C81.3116 39.6989 81.4288 40.4659 81.6632 41.1193C81.8975 41.7727 82.2349 42.2805 82.6752 42.6428C83.1227 42.9979 83.6696 43.1754 84.3159 43.1754ZM103.356 47.3089C101.637 47.3089 100.16 46.9574 98.9244 46.2543C97.6957 45.544 96.7475 44.5568 96.0799 43.2926C95.4194 42.0213 95.0891 40.5476 95.0891 38.8714C95.0891 37.1882 95.4194 35.7145 96.0799 34.4503C96.7475 33.179 97.6957 32.1918 98.9244 31.4886C100.16 30.7784 101.637 30.4233 103.356 30.4233C105.075 30.4233 106.549 30.7784 107.777 31.4886C109.013 32.1918 109.961 33.179 110.622 34.4503C111.289 35.7145 111.623 37.1882 111.623 38.8714C111.623 40.5476 111.289 42.0213 110.622 43.2926C109.961 44.5568 109.013 45.544 107.777 46.2543C106.549 46.9574 105.075 47.3089 103.356 47.3089ZM103.388 43.3778C104.013 43.3778 104.542 43.1861 104.975 42.8026C105.409 42.419 105.739 41.8864 105.966 41.2045C106.201 40.5227 106.318 39.7344 106.318 38.8395C106.318 37.9304 106.201 37.1349 105.966 36.4531C105.739 35.7713 105.409 35.2386 104.975 34.8551C104.542 34.4716 104.013 34.2798 103.388 34.2798C102.742 34.2798 102.195 34.4716 101.748 34.8551C101.307 35.2386 100.97 35.7713 100.735 36.4531C100.508 37.1349 100.395 37.9304 100.395 38.8395C100.395 39.7344 100.508 40.5227 100.735 41.2045C100.97 41.8864 101.307 42.419 101.748 42.8026C102.195 43.1861 102.742 43.3778 103.388 43.3778ZM118.99 42.7067L119.011 36.4957H119.736L124.338 30.6364H130.24L123.401 39.0312H122.026L118.99 42.7067ZM114.292 47V25.1818H119.501V47H114.292ZM124.455 47L120.173 40.2031L123.603 36.5064L130.474 47H124.455ZM142.662 39.9368V30.6364H147.861V47H142.896V43.9531H142.726C142.364 44.9545 141.746 45.75 140.872 46.3395C140.006 46.9219 138.958 47.2131 137.729 47.2131C136.614 47.2131 135.634 46.9574 134.789 46.446C133.944 45.9347 133.287 45.2209 132.818 44.3047C132.349 43.3814 132.112 42.3018 132.104 41.0661V30.6364H137.314V40.0433C137.321 40.9311 137.555 41.6307 138.017 42.142C138.479 42.6534 139.107 42.9091 139.903 42.9091C140.421 42.9091 140.886 42.7955 141.298 42.5682C141.717 42.3338 142.048 41.9964 142.289 41.5561C142.538 41.1087 142.662 40.5689 142.662 39.9368Z" fill="#4E5775"/>
<rect x="165" y="20" width="30" height="30" rx="5" fill="#C7C8E7"/>
</g>
<rect x="903" y="444" width="270" height="270" rx="5" fill="#EDF2F5"/>
<rect x="925" y="466" width="71" height="72" rx="5" fill="#C7C8E7"/>
<rect x="925" y="620" width="71" height="72" rx="5" fill="#C7C8E7"/>
<rect x="1002" y="620" width="72" height="72" rx="5" fill="#C7C8E7"/>
<rect x="1080" y="620" width="71" height="72" rx="5" fill="#4E5775"/>
<rect x="1002" y="466" width="72" height="72" rx="5" fill="#C7C8E7"/>
<rect x="1080" y="466" width="71" height="72" rx="5" fill="#C7C8E7"/>
<rect x="925" y="543" width="71" height="70" rx="5" fill="#C7C8E7"/>
<rect x="1002" y="543" width="72" height="70" rx="5" fill="#C7C8E7"/>
<rect x="1080" y="543" width="71" height="70" rx="5" fill="#C7C8E7"/>
<rect x="903" y="444" width="270" height="270" rx="5" fill="#EDF2F5"/>
<rect x="925" y="466" width="71" height="72" rx="5" fill="#C7C8E7"/>
<rect x="925" y="618" width="71" height="72" rx="5" fill="#C7C8E7"/>
<rect x="1002" y="618" width="72" height="72" rx="5" fill="#C7C8E7"/>
<rect x="1080" y="618" width="71" height="72" rx="5" fill="#4E5775"/>
<rect x="1002" y="466" width="72" height="72" rx="5" fill="#C7C8E7"/>
<rect x="1080" y="466" width="71" height="72" rx="5" fill="#C7C8E7"/>
<rect x="925" y="543" width="71" height="70" rx="5" fill="#C7C8E7"/>
<rect x="1002" y="543" width="72" height="70" rx="5" fill="#C7C8E7"/>
<rect x="1080" y="543" width="71" height="70" rx="5" fill="#C7C8E7"/>
<rect x="905" y="204" width="270" height="224" rx="5" fill="#EDF2F5"/>
<rect x="1004" y="331" width="71" height="72" rx="5" fill="#C7C8E7"/>
<path d="M1084.5 336C1084.5 333.239 1086.74 331 1089.5 331H1150.5C1153.26 331 1155.5 333.239 1155.5 336V398C1155.5 400.761 1153.26 403 1150.5 403H1089.5C1086.74 403 1084.5 400.761 1084.5 398V336Z" fill="#C7C8E7"/>
<rect x="924" y="331" width="71" height="72" rx="5" fill="#C7C8E7"/>
<rect x="903" y="730" width="270" height="66" rx="5" fill="#4E5775"/>
<rect x="903" y="730" width="270" height="66" rx="5" fill="#4E5775"/>
</g>
<defs>
<filter id="filter0_d_2_364" x="-8" y="-8" width="1456" height="86" filterUnits="userSpaceOnUse" color-interpolation-filters="sRGB">
<feFlood flood-opacity="0" result="BackgroundImageFix"/>
<feColorMatrix in="SourceAlpha" type="matrix" values="0 0 0 0 0 0 0 0 0 0 0 0 0 0 0 0 0 0 127 0" result="hardAlpha"/>
<feOffset/>
<feGaussianBlur stdDeviation="4"/>
<feComposite in2="hardAlpha" operator="out"/>
<feColorMatrix type="matrix" values="0 0 0 0 0 0 0 0 0 0 0 0 0 0 0 0 0 0 0.2 0"/>
<feBlend mode="normal" in2="BackgroundImageFix" result="effect1_dropShadow_2_364"/>
<feBlend mode="normal" in="SourceGraphic" in2="effect1_dropShadow_2_364" result="shape"/>
</filter>
<clipPath id="clip0_2_364">
<rect width="1440" height="1000" fill="white"/>
</clipPath>
<clipPath id="clip1_2_364">
<rect width="188" height="188" fill="white" transform="translate(265 406)"/>
</clipPath>
<clipPath id="clip2_2_364">
<rect width="188" height="188" fill="white" transform="translate(265 204)"/>
</clipPath>
<clipPath id="clip3_2_364">
<rect width="188" height="188" fill="white" transform="translate(467 406)"/>
</clipPath>
<clipPath id="clip4_2_364">
<rect width="188" height="188" fill="white" transform="translate(669 406)"/>
</clipPath>
<clipPath id="clip5_2_364">
<rect width="188" height="188" fill="white" transform="translate(265 608)"/>
</clipPath>
<clipPath id="clip6_2_364">
<rect width="188" height="188" fill="white" transform="translate(467 608)"/>
</clipPath>
<clipPath id="clip7_2_364">
<rect width="188" height="188" fill="white" transform="translate(669 608)"/>
</clipPath>
<clipPath id="clip8_2_364">
<rect width="188" height="188" fill="white" transform="translate(669 204)"/>
</clipPath>
<clipPath id="clip9_2_364">
<rect width="188" height="188" fill="white" transform="translate(467 204)"/>
</clipPath>
</defs>
</svg>
